<?xml version="1.0" encoding="UTF-8" standalone="no"?>
<svg
   xmlns:dc="http://purl.org/dc/elements/1.1/"
   xmlns:cc="http://creativecommons.org/ns#"
   xmlns:rdf="http://www.w3.org/1999/02/22-rdf-syntax-ns#"
   xmlns:svg="http://www.w3.org/2000/svg"
   xmlns="http://www.w3.org/2000/svg"
   xmlns:xlink="http://www.w3.org/1999/xlink"
   xmlns:sodipodi="http://sodipodi.sourceforge.net/DTD/sodipodi-0.dtd"
   xmlns:inkscape="http://www.inkscape.org/namespaces/inkscape"
   sodipodi:docname="feed-refresh-symbolic.svg"
   inkscape:version="1.0 (4035a4fb49, 2020-05-01)"
   id="svg4077"
   height="16"
   width="16"
   version="1.1">
  <sodipodi:namedview
     inkscape:document-rotation="0"
     inkscape:current-layer="svg4077"
     inkscape:window-maximized="1"
     inkscape:window-y="27"
     inkscape:window-x="0"
     inkscape:cy="10.579052"
     inkscape:cx="1.252226"
     inkscape:zoom="27.812867"
     showgrid="false"
     id="namedview3973"
     inkscape:window-height="1136"
     inkscape:window-width="1920"
     inkscape:pageshadow="2"
     inkscape:pageopacity="0"
     guidetolerance="10"
     gridtolerance="10"
     objecttolerance="10"
     borderopacity="1"
     bordercolor="#666666"
     pagecolor="#ffffff" />
  <defs
     id="defs4079">
    <radialGradient
       gradientTransform="matrix(0,1.7142863,1.7418575,0,40.771221,-32.233914)"
       gradientUnits="userSpaceOnUse"
       xlink:href="#linearGradient2867-449-88-871-390-598-476-591-434-148-57-177-641-289-620-227-114-444-680-744-4-1-5-6-9"
       id="radialGradient3813-6"
       fy="-19.005346"
       fx="16.202444"
       r="19.99999"
       cy="-19.005346"
       cx="16.202444" />
    <linearGradient
       id="linearGradient2867-449-88-871-390-598-476-591-434-148-57-177-641-289-620-227-114-444-680-744-4-1-5-6-9">
      <stop
         offset="0"
         style="stop-color:#737373;stop-opacity:1"
         id="stop5430-5-0-9-4-2" />
      <stop
         offset="0.26238"
         style="stop-color:#636363;stop-opacity:1"
         id="stop5432-2-0-0-4-4" />
      <stop
         offset="0.704952"
         style="stop-color:#4b4b4b;stop-opacity:1"
         id="stop5434-9-6-8-5-0" />
      <stop
         offset="1"
         style="stop-color:#3f3f3f;stop-opacity:1"
         id="stop5436-2-7-0-0-5" />
    </linearGradient>
  </defs>
  <metadata
     id="metadata4082">
    <rdf:RDF>
      <cc:Work
         rdf:about="">
        <dc:format>image/svg+xml</dc:format>
        <dc:type
           rdf:resource="http://purl.org/dc/dcmitype/StillImage" />
        <dc:title />
      </cc:Work>
    </rdf:RDF>
  </metadata>
  <path
     style="color:#000000;display:inline;overflow:visible;visibility:visible;opacity:0.03;fill:none;stroke:#000000;stroke-width:1;stroke-linecap:butt;stroke-linejoin:miter;stroke-miterlimit:4;stroke-dasharray:none;stroke-dashoffset:0;stroke-opacity:1;marker:none;enable-background:accumulate"
     id="path4019-6"
     inkscape:connector-curvature="0"
     d="m 8.46875,1.59375 v 0.5 a 1.4715757,1.4715757 0 0 1 -1.25,1.46875 C 7.073792,3.583336 6.953565,3.655901 6.8125,3.6875 A 1.4715757,1.4715757 0 0 1 8.46875,5.15625 V 5.9375 l 3.625,-2.15625 z M 6.40625,3.8125 C 5.3092274,4.1489871 4.3742654,4.7776523 3.6875,5.65625 4.3713481,4.7930948 5.3293638,4.1417665 6.40625,3.8125 Z M 3.6875,5.65625 C 2.9611926,6.585435 2.46875,7.717042 2.46875,9 c 0,3.070774 2.4604759,5.53125 5.53125,5.53125 2.546847,0 4.567699,-1.733675 5.21875,-4.0625 h -0.0625 c -0.658247,2.282977 -2.671733,4 -5.15625,4 -3.004358,0 -5.46875,-2.464392 -5.46875,-5.46875 0,-1.267414 0.4237151,-2.419142 1.15625,-3.34375 z" />
  <path
     style="display:inline"
     fill="#bebebe"
     d="m 14.500284,1 a 1,1 0 0 0 -1,1 V 4.418 A 6.995,6.995 0 1 0 7.5002858,15 6.954,6.954 0 0 0 12.450284,12.95 1,1 0 0 0 11.036284,11.536 5.019,5.019 0 1 1 12.049284,6 H 9.5002855 a 1,1 0 0 0 0,2 h 4.9999985 a 1,1 0 0 0 1,-1 V 2 a 1,1 0 0 0 -1,-1 z"
     id="path2" />
</svg>
